<svg width="51" height="50" fill="none" xmlns="http://www.w3.org/2000/svg"><g clip-path="url(#a)"><path d="M37.46 33.17c.97-1.91 1.63-3.66 2.68-5.14 1.27-1.79 2.3-1.59 3.58.26-.69 1.48-1.35 2.88-2.05 4.37 1.93.27 3.51.17 4.83.73 2.95 1.24 4.56 5.47 3.32 8.85-1.2 3.28-2.63 6.64-6.8 7.04-2.26.22-4.55.03-6.83.09-1.18.03-2.36.2-3.54.32-.74.07-1.47.23-2.21.23-7.17.02-14.33-.03-21.5.04-1.91.02-2.72-.51-3.07-2.58-1.16-6.95-2.58-13.85-3.97-20.76-.5-2.49-1.2-4.93-1.74-7.41-.89-4.05 1.88-9.02 6.14-10.66-.26-1.27-.74-2.61-.76-3.96-.02-1.41.34-2.85.7-4.24C6.3.12 7.43-.14 7.76.08c.54.36 1.1 1.06 1.19 1.68.18 1.3.05 2.64.05 4.43.89-.4 1.53-.53 1.93-.9 2.41-2.24 6.81-1.88 9.11.38 1.02 1 2.92 1.11 3.94 1.46 1.51-2.5 2.65-4.57 4.02-6.49.27-.38 1.73-.46 2.08-.11.42.43.52 1.55.28 2.19-.48 1.29-1.29 2.47-2.22 4.14 1.84 0 3.16-.29 4.27.07 1.45.48 3.73 1.32 3.89 2.3.72 4.35 4.07 8.19 2.04 13.16-1.22 2.97-1.25 6.43-1.72 9.68-.04.32.53.71.84 1.1ZM3.61 19.06c1.21 2.39 2.07 4.36 3.17 6.18 4.38 7.24 17.63 7.42 23.18 3.08 2.94-2.3 5.5-4.93 5.06-9.26H3.61Zm2.24 10.75c1 5.04 2.11 9.49 2.71 14 .4 3.01 2.03 3.09 4.38 3.01 4.74-.15 9.48-.04 14.22-.05 3.06 0 3.72-1.02 2.56-3.96-1.43-3.66-.7-6.35 2.25-9.09.65-.6.87-1.67 1.28-2.52-.16-.18-.31-.36-.47-.54-8.95 5.63-17.75 5.65-26.93-.85Zm34.02 16.1c2.01.34 4.35.31 5.67-2.25.44-.85.46-1.92.89-2.78.87-1.73.03-2.95-1.09-4.04-1.58-1.55-3.17-.29-3.99.72-1.39 1.72-2.11 1.25-3.49.07-.88-.75-2.54-1.3-3.54-.97-.76.25-1.42 2.01-1.44 3.11-.07 4.69 1.61 6.17 6.99 6.14ZM11.82 15.82c1.58 0 3.17-.13 4.72.03 2.13.23 2.88-.67 2.66-2.67-.08-.74.09-1.62-.25-2.2-.84-1.39-1.72-2.9-2.98-3.83-.47-.35-2.8.56-2.95 1.21-.86 3.59-3.1 4.13-6.29 3.79-.66-.07-1.51 1.58-2.27 2.43.88.42 1.73 1.07 2.64 1.19 1.56.19 3.15.05 4.72.05Zm11.35 0c2.82 0 5.6-.04 8.39.02 1.49.03 2.61-.08 2.52-2.05-.08-1.8-.03-3.75-2.4-3.73-1.2.01-2.58.75-3.54 1.56-1.24 1.05-2.08 1.07-3.18-.05-.59-.61-1.36-1.05-2.3-1.75.18 2.15.32 3.78.51 6Z" fill="#FFA5BA"/></g><defs><clipPath id="a"><path fill="#fff" d="M0 0h50.25v49.96H0z"/></clipPath></defs></svg>