<svg aria-hidden="true" style="position: absolute; width: 0; height: 0; overflow: hidden;" version="1.1" xmlns="http://www.w3.org/2000/svg" xmlns:xlink="http://www.w3.org/1999/xlink">
<defs>

<!-- Стрелочки -->
<symbol id="icon-corner" viewBox="0 0 19 32">
<path d="M0.938 0.938c0.579-0.579 1.379-0.937 2.262-0.937s1.683 0.358 2.262 0.937l12.8 12.8c0.579 0.579 0.937 1.379 0.937 2.262s-0.358 1.683-0.937 2.262l-12.8 12.8c-0.575 0.556-1.359 0.898-2.223 0.898-1.767 0-3.2-1.433-3.2-3.2 0-0.864 0.343-1.648 0.899-2.224l-0.001 0.001 10.538-10.538-10.538-10.538c-0.579-0.579-0.937-1.379-0.937-2.262s0.358-1.683 0.937-2.262v0z"></path>
</symbol>

<symbol id="icon-arrow" viewBox="0 0 35 32">
<path d="M16.938 0.938c0.579-0.579 1.379-0.937 2.262-0.937s1.683 0.358 2.262 0.937l12.8 12.8c0.579 0.579 0.937 1.379 0.937 2.262s-0.358 1.683-0.937 2.262l-12.8 12.8c-0.575 0.556-1.359 0.898-2.223 0.898-1.767 0-3.2-1.433-3.2-3.2 0-0.864 0.343-1.648 0.899-2.224l-0.001 0.001 7.338-7.338h-21.075c-1.767 0-3.2-1.433-3.2-3.2s1.433-3.2 3.2-3.2v0h21.075l-7.338-7.338c-0.579-0.579-0.937-1.379-0.937-2.262s0.358-1.683 0.937-2.262v0z"></path>
</symbol>

<!-- Преимущества -->
<symbol id="icon-milk" viewBox="0 0 21 32">
<path d="M10.478 12.668c2.66 0 5.321-0.006 7.987 0 2.108 0.006 2.692 0.935 2.071 2.943-0.464 1.506-0.728 3.081-1.023 4.637-0.659 3.432-1.249 6.877-1.964 10.29-0.075 0.358-0.803 0.809-1.236 0.822-3.966 0.063-7.931 0.056-11.896 0.006-0.408-0.006-1.092-0.389-1.167-0.715-0.514-2.146-0.897-4.323-1.324-6.488-0.577-2.918-1.085-5.848-1.769-8.734-0.446-1.876 0.094-2.748 2.033-2.755 2.754-0.013 5.522-0.006 8.289-0.006zM5.026 29.377h10.736c0.471-2.642 0.929-5.258 1.462-8.264-4.787 2.867-9.073 2.792-13.741 0 0.571 3.043 1.054 5.647 1.544 8.264zM2.585 15.096c0.452 4.11 4.022 6.13 8.151 6.155 3.922 0.025 7.435-3.012 7.391-6.155h-15.542zM18.686 2.209c-0.471 0.803 0.113 1.97 0.584 3.288 0.226 0.634-0.464 1.838-1.073 2.466-0.791 0.822-1.926 0.74-2.968 0.194-1.349-0.703-1.87-0.452-2.077 0.973-0.238 1.65-1.336 2.786-2.717 2.811-1.443 0.025-2.573-1.117-2.824-2.861-0.194-1.355-0.759-1.625-1.989-0.985-1.111 0.577-2.209 0.703-3.2-0.27-0.96-0.935-1.587-1.983-0.565-3.2 0.853-1.010 0.075-1.939 0.006-2.886-0.094-1.261 0.289-1.757 1.644-1.738 4.599 0.069 9.198 0.056 13.798 0.006 1.205-0.006 1.826 0.32 1.38 2.202zM16.521 2.039h-12.317c1.544 1.682-0.295 2.773-0.602 4.643 0.778-0.496 1.148-0.753 1.544-0.973 0.383-0.213 0.86-0.615 1.173-0.521 1.010 0.307 2.077 0.659 2.899 1.286 0.395 0.301 0.251 1.267 0.433 1.907 0.144 0.508 0.414 0.979 0.646 1.518 1.355-1.148 0.339-3.137 2.441-4.085 1.801-0.809 2.867 0.119 4.386 0.408-0.558-1.418-1.983-2.522-0.602-4.185z"></path>
</symbol>

<symbol id="icon-fruit" viewBox="0 0 33 32">
<path d="M23.974 21.229c0.621-1.222 1.043-2.342 1.715-3.29 0.813-1.146 1.472-1.018 2.291 0.166-0.442 0.947-0.864 1.843-1.312 2.797 1.235 0.173 2.246 0.109 3.091 0.467 1.888 0.794 2.918 3.501 2.125 5.664-0.768 2.099-1.683 4.25-4.352 4.506-1.446 0.141-2.912 0.019-4.371 0.058-0.755 0.019-1.51 0.128-2.266 0.205-0.474 0.045-0.941 0.147-1.414 0.147-4.589 0.013-9.171-0.019-13.76 0.026-1.222 0.013-1.741-0.326-1.965-1.651-0.742-4.448-1.651-8.864-2.541-13.286-0.32-1.594-0.768-3.155-1.114-4.742-0.57-2.592 1.203-5.773 3.93-6.822-0.166-0.813-0.474-1.67-0.486-2.534-0.013-0.902 0.218-1.824 0.448-2.714 0.038-0.147 0.762-0.314 0.973-0.173 0.346 0.23 0.704 0.678 0.762 1.075 0.115 0.832 0.032 1.69 0.032 2.835 0.57-0.256 0.979-0.339 1.235-0.576 1.542-1.434 4.358-1.203 5.83 0.243 0.653 0.64 1.869 0.71 2.522 0.934 0.966-1.6 1.696-2.925 2.573-4.154 0.173-0.243 1.107-0.294 1.331-0.070 0.269 0.275 0.333 0.992 0.179 1.402-0.307 0.826-0.826 1.581-1.421 2.65 1.178 0 2.022-0.186 2.733 0.045 0.928 0.307 2.387 0.845 2.49 1.472 0.461 2.784 2.605 5.242 1.306 8.422-0.781 1.901-0.8 4.115-1.101 6.195-0.026 0.205 0.339 0.454 0.538 0.704zM2.31 12.198c0.774 1.53 1.325 2.79 2.029 3.955 2.803 4.634 11.283 4.749 14.835 1.971 1.882-1.472 3.52-3.155 3.238-5.926h-20.102zM3.744 19.078c0.64 3.226 1.35 6.074 1.734 8.96 0.256 1.926 1.299 1.978 2.803 1.926 3.034-0.096 6.067-0.026 9.101-0.032 1.958 0 2.381-0.653 1.638-2.534-0.915-2.342-0.448-4.064 1.44-5.818 0.416-0.384 0.557-1.069 0.819-1.613-0.102-0.115-0.198-0.23-0.301-0.346-5.728 3.603-11.36 3.616-17.235-0.544zM25.517 29.382c1.286 0.218 2.784 0.198 3.629-1.44 0.282-0.544 0.294-1.229 0.57-1.779 0.557-1.107 0.019-1.888-0.698-2.586-1.011-0.992-2.029-0.186-2.554 0.461-0.89 1.101-1.35 0.8-2.234 0.045-0.563-0.48-1.626-0.832-2.266-0.621-0.486 0.16-0.909 1.286-0.922 1.99-0.045 3.002 1.030 3.949 4.474 3.93zM7.565 10.125c1.011 0 2.029-0.083 3.021 0.019 1.363 0.147 1.843-0.429 1.702-1.709-0.051-0.474 0.058-1.037-0.16-1.408-0.538-0.89-1.101-1.856-1.907-2.451-0.301-0.224-1.792 0.358-1.888 0.774-0.55 2.298-1.984 2.643-4.026 2.426-0.422-0.045-0.966 1.011-1.453 1.555 0.563 0.269 1.107 0.685 1.69 0.762 0.998 0.122 2.016 0.032 3.021 0.032zM14.829 10.125c1.805 0 3.584-0.026 5.37 0.013 0.954 0.019 1.67-0.051 1.613-1.312-0.051-1.152-0.019-2.4-1.536-2.387-0.768 0.006-1.651 0.48-2.266 0.998-0.794 0.672-1.331 0.685-2.035-0.032-0.378-0.39-0.87-0.672-1.472-1.12 0.115 1.376 0.205 2.419 0.326 3.84z"></path>
</symbol>

<symbol id="icon-caramel" viewBox="0 0 28 32">
<path d="M16.502 31.435h-5.264c0-2.158-0.144-4.242 0.044-6.3 0.188-2.039-0.747-3.187-2.309-4.242-3.263-2.202-6.199-4.787-7.95-8.402-2.227-4.606-0.853-10.246 4.486-12.135 2.585-0.916 5.12-0.025 6.996 1.995 1.085 1.173 1.625 1.123 2.742-0.006 4.066-4.104 10.020-2.278 11.871 2.836 1.757 4.856-0.558 8.464-3.595 11.733-1.631 1.751-3.702 3.106-5.616 4.593-0.954 0.74-1.474 1.569-1.424 2.849 0.082 2.328 0.019 4.668 0.019 7.078zM18.334 12.574c0-0.709-0.031-1.38 0.006-2.052 0.082-1.587 1.073-2.773 2.372-2.886 1.914-0.169 2.755 0.477 3.244 2.384 0.082 0.326 0.458 0.577 0.703 0.866 0.358-0.376 1.023-0.765 1.016-1.136-0.031-1.368-0.182-2.755-0.477-4.091-0.445-2.046-2.014-3.112-3.878-3.564-1.964-0.477-3.645 0.326-4.932 1.845-1.55 1.826-3.445 1.782-5.064-0.019-1.462-1.631-3.338-2.522-5.904-1.431-2.428 1.035-3.815 3.827-3.413 6.814 0.075 0.565 0.621 1.060 0.947 1.587 0.295-0.452 0.533-0.96 0.904-1.336 0.659-0.678 1.305-1.581 2.127-1.838 1.104-0.345 2.447-0.213 2.893 1.261 0.358 1.205 0.552 2.46 0.904 4.097 0.552-0.514 1.123-0.828 1.343-1.305 0.226-0.483 0.1-1.123 0.138-1.694 0.119-1.769 0.809-2.434 2.541-2.453 1.851-0.019 2.56 0.627 2.673 2.478 0.031 0.471-0.044 0.954 0.056 1.405 0.188 0.784 0.477 1.544 1.801 1.067zM6.3 9.512c-0.803 1.305-1.192 2.347-1.926 3.018-0.703 0.646-0.653 0.86-0.088 1.537 2.372 2.855 5.176 5.195 8.37 7.027 0.621 0.358 1.788 0.383 2.397 0.025 3.169-1.857 5.986-4.166 8.364-7.015 0.634-0.759 0.546-1.004-0.107-1.663-0.703-0.709-1.092-1.732-1.794-2.911-0.709-0.251-1.18 0.276-1.286 1.274-0.056 0.514-0.019 1.042-0.031 1.562-0.044 1.236-0.577 2.064-1.882 2.259-1.801 0.27-2.811-0.138-3.219-1.5-0.276-0.922-0.301-1.914-0.54-2.855-0.075-0.289-0.452-0.584-0.753-0.696-0.119-0.044-0.546 0.383-0.609 0.646-0.113 0.502-0.025 1.042-0.082 1.556-0.226 2.077-1.23 2.987-3.169 2.899-1.851-0.088-2.372-0.747-2.416-3.043-0.006-0.264 0.019-0.527-0.006-0.784-0.107-0.979-0.527-1.562-1.224-1.336zM13.716 23.178c-0.194 0.132-0.395 0.257-0.59 0.389 0 1.7 0.019 3.401-0.006 5.101-0.019 1.173 0.602 1.079 1.5 0.791 0-1.719 0.056-3.42-0.044-5.114-0.025-0.408-0.558-0.784-0.86-1.167z"></path>
</symbol>

<!-- Кавычки -->
<symbol id="icon-quotes" viewBox="0 0 43 32">
<path d="M32.014 0c1.928 0 3.75 0.52 5.464 1.561s3.107 2.537 4.178 4.488c1.029 1.951 1.543 4.25 1.543 6.894s-0.643 5.225-1.928 7.74c-0.429 0.91-1.2 2.081-2.315 3.512-1.157 1.43-2.228 2.666-3.214 3.707l-4.050 4.098-2.893-4.813c2.063-1.302 3.824-2.855 5.306-4.646l0.030-0.037c1.542-1.821 2.314-3.49 2.314-5.008 0-0.781-0.171-1.41-0.514-1.886-1.5 1.084-3.172 1.626-5.014 1.626-1.328 0-2.593-0.412-3.793-1.236-1.237-0.782-2.237-1.834-2.935-3.078l-0.022-0.043c-0.771-1.258-1.157-2.558-1.157-3.902 0-1.518 0.45-2.97 1.35-4.358 0.866-1.389 2.011-2.526 3.364-3.356l0.044-0.025c1.37-0.824 2.784-1.236 4.242-1.236zM8.936 0c1.928 0 3.75 0.52 5.464 1.561s3.107 2.536 4.178 4.488c1.029 1.951 1.543 4.25 1.543 6.894 0 1.864-0.236 3.534-0.707 5.008-0.472 1.518-1.286 3.1-2.443 4.748-1.114 1.561-2.164 2.862-3.15 3.902-0.986 1.084-2.7 2.883-5.143 5.398l-2.893-4.813c2.063-1.302 3.824-2.855 5.306-4.646l0.030-0.037c1.542-1.821 2.314-3.49 2.314-5.008 0-0.781-0.172-1.41-0.514-1.886-1.5 1.084-3.172 1.626-5.014 1.626-1.328 0-2.593-0.412-3.793-1.236-1.237-0.782-2.237-1.834-2.935-3.078l-0.022-0.043c-0.771-1.258-1.157-2.558-1.157-3.902 0-1.518 0.429-2.97 1.286-4.358 0.866-1.389 2.011-2.526 3.364-3.356l0.045-0.025c1.37-0.824 2.784-1.236 4.242-1.236z"></path>
</symbol>

<!-- Пагинатор маленький -->
<symbol id="icon-ellipse-4px" viewBox="0 0 32 32">
<path d="M32 16c0 8.837-7.163 16-16 16s-16-7.163-16-16c0-8.837 7.163-16 16-16s16 7.163 16 16z"></path>
</symbol>

<!-- Пагинатор большой -->
<symbol id="icon-home" viewBox="0 0 35 32">
<path d="M33.213 15.613c0.249-0.282 0.402-0.656 0.402-1.064 0-0.472-0.203-0.896-0.526-1.191l-0.001-0.001-14.301-12.925c-0.305-0.269-0.707-0.433-1.148-0.433-0.455 0-0.869 0.175-1.179 0.461l0.001-0.001-14.349 13.589c-0.307 0.292-0.497 0.704-0.497 1.16 0 0.422 0.163 0.805 0.429 1.091l-0.001-0.001 0.36 0.387c0.595 0.64 1.56 0.72 2.152 0.171l1.072-0.992v14.523c0 0.893 0.699 1.613 1.563 1.613h5.592c0.864 0 1.563-0.72 1.563-1.613v-10.16h7.133v10.16c-0.011 0.891 0.605 1.613 1.467 1.613h5.928c0.861 0 1.56-0.72 1.56-1.613v-14.32l0.664 0.603c0.363 0.331 1.131 0.064 1.709-0.595l0.408-0.461z"></path>
</symbol>

<symbol id="icon-ellipse-12px" viewBox="0 0 32 32">
<path d="M32 16c0 8.837-7.163 16-16 16s-16-7.163-16-16c0-8.837 7.163-16 16-16s16 7.163 16 16z"></path>
</symbol>

<!-- Соц. сети в футоре -->
<symbol id="icon-facebook" viewBox="0 0 32 32">
<path d="M20.446 15.981h-2.611v9.619h-3.955v-9.619h-1.88v-3.379h1.88v-2.187c0-1.564 0.739-4.014 3.991-4.014l2.929 0.012v3.281h-2.125c-0.348 0-0.839 0.176-0.839 0.922v1.989h2.955l-0.345 3.377z"></path>
</symbol>

<symbol id="icon-github" viewBox="0 0 32 32">
<path d="M16 6.588c-5.17 0-9.412 4.242-9.412 9.412 0 4.411 3.096 8.419 7.206 9.412v-3.113c-0.408 0.088-0.781 0.091-1.196-0.031-0.556-0.164-1.008-0.535-1.344-1.099-0.214-0.36-0.593-0.753-0.988-0.724l-0.097-1.098c0.856-0.073 1.594 0.521 2.033 1.258 0.196 0.328 0.421 0.52 0.709 0.605 0.278 0.083 0.577 0.043 0.925-0.080 0.088-0.697 0.408-0.958 0.649-1.327-2.452-0.365-3.429-1.666-3.816-2.692-0.514-1.364-0.238-3.066 0.67-4.143 0.018-0.021 0.050-0.075 0.038-0.113-0.417-1.259 0.090-2.3 0.109-2.41 0.481 0.141 0.559-0.143 2.089 0.786l0.264 0.159c0.111 0.066 0.075 0.028 0.186 0.019 0.59-0.166 1.269-0.266 1.97-0.276l0.006-0c0.668 0.008 1.336 0.104 2.002 0.284l0.086 0.009c-0.008-0.002 0.024-0.006 0.075-0.037 1.911-1.158 1.842-0.779 2.355-0.946 0.019 0.111 0.519 1.169 0.106 2.411-0.056 0.171 1.656 1.739 0.708 4.256-0.388 1.026-1.365 2.328-3.816 2.693 0.314 0.48 0.692 0.734 0.69 1.722v3.886c4.109-0.993 7.206-5 7.206-9.412 0-5.17-4.242-9.412-9.412-9.412z"></path>
</symbol>

<symbol id="icon-telegram" viewBox="0 0 32 32">
<path d="M12.867 18.376l-0.317 4.169c0.455 0 0.651-0.183 0.888-0.401l2.13-1.901 4.414 3.018c0.809 0.421 1.381 0.199 1.6-0.696l2.897-12.673c0.258-1.117-0.433-1.554-1.221-1.28l-17.032 6.086c-1.162 0.422-1.145 1.026-0.198 1.301l4.355 1.264 10.114-5.907c0.476-0.295 0.909-0.132 0.553 0.163l-8.182 6.856z"></path>
</symbol>

<!-- Меню -->
<symbol id="icon-burger-close" viewBox="0 0 32 32">
<path d="M15.712 16.144l-5.115-5.312 0.576-0.554 5.115 5.312 5.312-5.115 0.555 0.576-5.312 5.115 5.115 5.312-0.576 0.554-5.116-5.312-5.312 5.116-0.554-0.576 5.312-5.116z"></path>
</symbol>

<symbol id="icon-burger-menu" viewBox="0 0 33 32">
<path  d="M24 11.2h-16v-0.8h16v0.8zM24 16h-16v-0.8h16v0.8zM24 20.8h-16v-0.8h16v0.8z"></path>
</symbol>

</defs>
</svg>
