<svg width="45" height="51" fill="none" xmlns="http://www.w3.org/2000/svg"><g clip-path="url(#a)"><path d="M26.3 50.1h-8.39c0-3.44-.23-6.76.07-10.04.3-3.25-1.19-5.08-3.68-6.76-5.2-3.51-9.88-7.63-12.67-13.39C-1.92 12.57.27 3.58 8.78.57 12.9-.89 16.94.53 19.93 3.75c1.73 1.87 2.59 1.79 4.37-.01C30.78-2.8 40.27.11 43.22 8.26c2.8 7.74-.89 13.49-5.73 18.7-2.6 2.79-5.9 4.95-8.95 7.32-1.52 1.18-2.35 2.5-2.27 4.54.13 3.71.03 7.44.03 11.28Zm2.92-30.06c0-1.13-.05-2.2.01-3.27.13-2.53 1.71-4.42 3.78-4.6 3.05-.27 4.39.76 5.17 3.8.13.52.73.92 1.12 1.38.57-.6 1.63-1.22 1.62-1.81-.05-2.18-.29-4.39-.76-6.52-.71-3.26-3.21-4.96-6.18-5.68-3.13-.76-5.81.52-7.86 2.94-2.47 2.91-5.49 2.84-8.07-.03-2.33-2.6-5.32-4.02-9.41-2.28-3.87 1.65-6.08 6.1-5.44 10.86.12.9.99 1.69 1.51 2.53.47-.72.85-1.53 1.44-2.13 1.05-1.08 2.08-2.52 3.39-2.93 1.76-.55 3.9-.34 4.61 2.01.57 1.92.88 3.92 1.44 6.53.88-.82 1.79-1.32 2.14-2.08.36-.77.16-1.79.22-2.7.19-2.82 1.29-3.88 4.05-3.91 2.95-.03 4.08 1 4.26 3.95.05.75-.07 1.52.09 2.24.3 1.25.76 2.46 2.87 1.7Zm-19.18-4.88c-1.28 2.08-1.9 3.74-3.07 4.81-1.12 1.03-1.04 1.37-.14 2.45 3.78 4.55 8.25 8.28 13.34 11.2.99.57 2.85.61 3.82.04 5.05-2.96 9.54-6.64 13.33-11.18 1.01-1.21.87-1.6-.17-2.65-1.12-1.13-1.74-2.76-2.86-4.64-1.13-.4-1.88.44-2.05 2.03-.09.82-.03 1.66-.05 2.49-.07 1.97-.92 3.29-3 3.6-2.87.43-4.48-.22-5.13-2.39-.44-1.47-.48-3.05-.86-4.55-.12-.46-.72-.93-1.2-1.11-.19-.07-.87.61-.97 1.03-.18.8-.04 1.66-.13 2.48-.36 3.31-1.96 4.76-5.05 4.62-2.95-.14-3.78-1.19-3.85-4.85-.01-.42.03-.84-.01-1.25-.17-1.56-.84-2.49-1.95-2.13Zm11.82 21.78c-.31.21-.63.41-.94.62 0 2.71.03 5.42-.01 8.13-.03 1.87.96 1.72 2.39 1.26 0-2.74.09-5.45-.07-8.15-.04-.65-.89-1.25-1.37-1.86Z" fill="#FFA5BA"/></g><defs><clipPath id="a"><path fill="#fff" d="M0 0h44.18v50.1H0z"/></clipPath></defs></svg>